<?xml version="1.0" encoding="utf-8"?>
<!-- Generator: Adobe Illustrator 28.1.0, SVG Export Plug-In . SVG Version: 6.00 Build 0)  -->
<svg version="1.1" id="レイヤー_1" xmlns="http://www.w3.org/2000/svg" xmlns:xlink="http://www.w3.org/1999/xlink" x="0px"
	 y="0px" viewBox="0 0 776 776" style="enable-background:new 0 0 776 776;" xml:space="preserve">
<style type="text/css">
	.st0{fill:#080808;}
	.st1{fill:#FFFFFF;}
	.st2{font-family:'HiraKakuProN-W3-83pv-RKSJ-H';}
	.st3{font-size:47px;}
	.st4{fill:none;}
	.st5{fill:#FCD069;}
</style>
<rect class="st0" width="776" height="776"/>
<g id="レイヤー_3">
	<text transform="matrix(1 0 0 1 60.4371 446.9236)" class="st1 st2 st3">Hanzan.H.S. Wind Orchestra</text>
</g>
<g id="レイヤー_1_00000067936385437112951030000001149497197798791615_">
	<g>
		<path vector-effect="non-scaling-stroke" class="st4" d="M361.6,307.8c-0.4,0-0.7-0.1-1-0.2c-11-6.3-22-12.6-32.9-18.9
			c-3.6-2.1-7.3-2.6-9.7,1.5c-0.6,1-0.8,2-0.6,3c4.1,24,8,47.5,11.7,70.5c0.6,3.6,2.6,5.4,6,5.4c33.5,0,67.9,0,103.3,0
			c5.1,0,7.5,0,8.5-5.9c3.8-22.7,7.7-46,11.7-69.9c0.2-1,0-2.1-0.7-3.1c-2.5-4.1-6-3.5-9.5-1.5c-12.1,7-23.3,13.4-33.6,19.3
			c-0.4,0.2-0.8,0.1-1-0.3c0,0,0,0,0-0.1c-6.5-14.8-13.3-30.1-20.4-45.9c-2.6-5.9-8.7-5.1-11.2,0.6c-6.7,15.2-13.4,30.3-20.1,45.2
			C362.1,307.6,361.8,307.8,361.6,307.8"/>
		<path vector-effect="non-scaling-stroke" class="st4" d="M391.7,285.6c-1-2.3-2-4.7-3-7.1c-0.1-0.3-0.5-0.5-0.9-0.4
			c-0.2,0.1-0.3,0.2-0.4,0.3c-6,13.4-11.9,26.7-17.6,39.7c-2.5,5.7-7,3.8-11.1,1.5c-9.2-5.3-18.2-10.4-26.9-15.5
			c-0.2-0.1-0.5,0-0.6,0.2c0,0.1-0.1,0.1-0.1,0.2c0,1.2,0.2,2.5,0.4,3.9c3,17.2,5.6,33.3,7.9,48.2c0.1,0.5,0.4,0.9,0.9,1
			c1,0.2,2,0.3,3,0.3c30.7,0.1,61.3,0.1,92,0c0.5,0,0.9-0.4,1-0.9l8.7-52.3c0.1-0.7-0.1-0.9-0.8-0.6c-8.9,5-17.8,10.2-26.9,15.4
			c-4.4,2.5-8.8,4.1-11.4-1.7C401.9,308.5,397.1,297.8,391.7,285.6"/>
	</g>
	<path class="st5" d="M361.6,307.8c0.2,0,0.5-0.2,0.6-0.4c6.6-14.9,13.3-30,20.1-45.2c2.5-5.7,8.6-6.5,11.2-0.6
		c7,15.8,13.8,31.1,20.4,45.9c0.2,0.4,0.6,0.6,1,0.4c0,0,0,0,0.1,0c10.3-5.8,21.5-12.2,33.6-19.3c3.5-2,7-2.6,9.5,1.5
		c0.6,1,0.8,2,0.7,3.1c-4,23.9-7.9,47.2-11.7,69.9c-1,5.9-3.5,5.9-8.5,5.9c-35.4,0-69.9,0-103.3,0c-3.4,0-5.4-1.8-6-5.4
		c-3.8-23-7.7-46.5-11.7-70.5c-0.2-1,0-2,0.6-3c2.4-4.2,6.1-3.6,9.7-1.5c10.9,6.3,21.9,12.6,32.9,18.9
		C360.9,307.8,361.2,307.8,361.6,307.8z M391.7,285.6c-1-2.3-2-4.7-3-7.1c-0.1-0.3-0.5-0.5-0.9-0.4c-0.2,0.1-0.3,0.2-0.4,0.3
		c-6,13.4-11.9,26.7-17.6,39.7c-2.5,5.7-7,3.8-11.1,1.5c-9.2-5.3-18.2-10.4-26.9-15.5c-0.2-0.1-0.5,0-0.6,0.2c0,0.1-0.1,0.1-0.1,0.2
		c0,1.2,0.2,2.5,0.4,3.9c3,17.2,5.6,33.3,7.9,48.2c0.1,0.5,0.4,0.9,0.9,1c1,0.2,2,0.3,3,0.3c30.7,0.1,61.3,0.1,92,0
		c0.5,0,0.9-0.4,1-0.9l8.7-52.3c0.1-0.7-0.1-0.9-0.8-0.6c-8.9,5-17.8,10.2-26.9,15.4c-4.4,2.5-8.8,4.1-11.4-1.7
		C401.9,308.5,397.1,297.8,391.7,285.6z"/>
</g>
</svg>
